<?xml version="1.0" encoding="utf-8"?>
<!-- Generator: Adobe Illustrator 25.4.1, SVG Export Plug-In . SVG Version: 6.00 Build 0)  -->
<svg version="1.1" id="Layer_1" xmlns="http://www.w3.org/2000/svg" xmlns:xlink="http://www.w3.org/1999/xlink" x="0px" y="0px"
	 viewBox="0 0 124 33" style="enable-background:new 0 0 124 33;" xml:space="preserve">
<style type="text/css">
	.st0{fill-rule:evenodd;clip-rule:evenodd;fill:#000A39;stroke:#000A39;stroke-width:0.25;stroke-miterlimit:10;}
	.st1{fill-rule:evenodd;clip-rule:evenodd;fill:#6DCDAE;stroke:#6DCDAE;stroke-width:0.25;stroke-miterlimit:10;}
	.st2{fill-rule:evenodd;clip-rule:evenodd;fill:#E2F8FB;}
	.st3{fill-rule:evenodd;clip-rule:evenodd;fill:#FCFEFF;}
	.st4{fill-rule:evenodd;clip-rule:evenodd;fill:#BCDEE5;}
	.st5{fill-rule:evenodd;clip-rule:evenodd;fill:#BDDFE5;}
	.st6{fill-rule:evenodd;clip-rule:evenodd;fill:#C7E8EE;}
	.st7{fill-rule:evenodd;clip-rule:evenodd;fill:#9CCFD8;}
	.st8{fill-rule:evenodd;clip-rule:evenodd;fill:#DEF6FA;}
	.st9{fill-rule:evenodd;clip-rule:evenodd;fill:#95E4CB;}
	.st10{fill-rule:evenodd;clip-rule:evenodd;fill:#6DCDAE;}
	.st11{fill-rule:evenodd;clip-rule:evenodd;fill:#ADF6DF;}
	.st12{fill-rule:evenodd;clip-rule:evenodd;fill:#DFFFF5;}
	.st13{fill-rule:evenodd;clip-rule:evenodd;fill:#93C7D0;}
	.st14{fill-rule:evenodd;clip-rule:evenodd;fill:#6BAAB6;}
	.st15{fill-rule:evenodd;clip-rule:evenodd;fill:#C3E6ED;}
	.st16{fill-rule:evenodd;clip-rule:evenodd;fill:#FFFFFF;}
</style>
<path class="st0" d="M3.7,4.2c2.1,0,4.1,0,6.2,0c1.9,4.9,3.7,9.7,5.6,14.6c1.9-4.8,3.8-9.6,5.7-14.4c2,0,4.1,0,6.1-0.1
	c-3.2,8.2-6.4,16.4-9.6,24.6c-1.5,0-2.9,0-4.4,0.1C10.1,20.7,6.9,12.4,3.7,4.2z"/>
<path class="st0" d="M25.4,28.7c3.2-8.1,6.5-16.3,9.7-24.4c1.5,0,3,0,4.5,0c3.2,8.2,6.5,16.3,9.7,24.5c-2,0-4.1,0-6.1-0.1
	c-1.9-4.8-3.9-9.7-5.8-14.5c-1.9,4.9-3.8,9.7-5.7,14.6C29.6,28.8,27.5,28.7,25.4,28.7z"/>
<path class="st1" d="M35.4,22.7c0.7-1.9,1.3-3.9,2-5.8c1.2,3.1,2.4,6.2,3.7,9.3C39.2,25,37.3,23.8,35.4,22.7z"/>
<path class="st0" d="M34.1,26.1c0.3-0.9,0.7-1.9,1-2.8c1.9,1.2,3.8,2.4,5.7,3.6C38.6,26.6,36.4,26.3,34.1,26.1z"/>
<path class="st0" d="M49.8,4.5c1.9,0.1,3.9,0.1,5.8,0.2c0,2.4,0,4.9,0,7.3c2.6-2.5,5.1-5,7.7-7.6c2.6,0,5.2,0,7.9,0.1
	c-3.4,3.4-6.7,6.8-10.1,10.3c3.1,4.7,6.3,9.3,9.4,14c-2.4,0-4.7,0.1-7.1,0.1c-2.2-3.3-4.4-6.6-6.6-9.9c-0.4,0.3-0.8,0.7-1.1,1
	c0,2.9,0,5.8,0.1,8.8c-2,0-4,0-6,0.1C49.8,20.7,49.8,12.6,49.8,4.5z"/>
<path class="st0" d="M70.2,19.1c0,0,5.9-0.1,5.8,0c0,0-0.4,0.8,0.4,2.7c0.1,0.4,0.3,0.8,0.6,1.2c0,0,1.8,1.7,5.4,0
	c0,0,2.3-1.4-1.3-2.9c0,0-8.5-3.6-8.7-4.1c0,0-3.3-3.3-0.9-7.8c0,0,2.1-4.1,8.1-4c0,0,6.9-0.3,8.6,6c0.2,3.2,0.2,3.2,0.2,3.2l-6-0.1
	c0,0,0.9-2.9-1.7-3.5c0,0-3-0.5-4.1,0.8c0,0-0.2,0.8-0.2,1.1c0,0,3.5,1.9,10,4.7c0,0,5.4,3.7,0.5,10.2c0,0-5.6,5.6-14.7-0.1
	C72.3,26.5,69.4,22.9,70.2,19.1z"/>
<path class="st0" d="M100.8,4.4c1.8,0,3.7,0,5.5-0.1c2.5,4.4,5.1,8.7,7.6,13.1c0-4.3,0-8.6,0.1-12.9c2,0,3.9,0,5.9,0
	c0,8.1,0,16.1,0,24.2c-1.9,0-3.7,0.1-5.6,0.1c-2.5-4.3-5-8.6-7.5-12.8c0,4.3,0,8.6,0.1,12.8c-2,0-4.1-0.1-6.1-0.1
	C100.7,20.6,100.8,12.5,100.8,4.4z"/>
<g>
	<path class="st2" d="M92.9,25.3C92.8,25.3,92.8,25.3,92.9,25.3C92.8,25.3,92.8,25.3,92.9,25.3c-0.1-0.1-0.2-0.1-0.3-0.1
		c-0.1,0-0.2-0.1-0.3-0.1c-0.1,0-0.1-0.1-0.2-0.1c0,0-0.1-0.1-0.1-0.1c0,0,0,0-0.1,0c-0.1,0-0.1-0.1-0.1-0.2c0,0,0,0,0-0.1
		c0-0.1,0-0.2,0-0.3c0-0.1,0-0.2,0-0.3c0-0.1,0-0.2,0-0.3c0-0.1,0-0.2,0-0.3c0,0,0,0,0,0c0-0.2,0-0.4,0-0.6c0-0.2,0-0.4,0-0.6
		c0-0.1,0-0.2,0-0.4c0-0.1,0-0.2,0-0.2c0-0.1,0-0.1,0-0.2c0,0,0,0,0-0.1c0,0,0,0,0-0.1c0,0,0,0,0,0c0,0,0-0.1,0-0.1c0,0,0,0,0,0
		c0,0,0,0,0,0c0-0.1,0-0.1,0-0.2c0-0.1,0-0.2,0-0.3c0-0.2,0-0.4,0-0.6c0,0,0,0,0,0c0,0,0,0,0-0.1c0-0.1,0-0.2,0-0.3c0,0,0-0.1,0-0.1
		c0,0,0,0,0,0c0-0.1,0-0.1,0-0.2c0,0,0,0,0,0c0-0.1,0-0.1,0-0.2c0,0,0-0.1,0-0.1c0,0,0-0.1,0-0.1c0,0,0-0.1,0-0.1c0-0.2,0-0.4,0-0.5
		c0-0.2,0-0.5,0-0.7c0,0,0,0,0-0.1c0,0,0-0.1,0-0.1c0-0.1,0-0.1,0-0.2c0-0.1,0-0.3,0-0.4c0-0.2,0-0.4,0-0.7c0-0.2,0-0.4,0-0.7
		c0,0,0-0.1,0-0.1c0-0.1,0-0.1,0-0.2c0-0.1,0-0.2,0-0.3c0,0,0,0,0-0.1c0,0,0-0.1,0-0.1c0,0,0-0.1,0-0.1c0-0.2,0-0.4,0-0.7
		c0-0.2,0-0.4,0-0.6c0-0.1,0-0.2,0-0.3c0,0,0-0.1,0-0.1c0-0.1,0-0.1,0-0.2c0,0,0,0,0,0c0-0.2,0-0.4,0-0.6c0-0.2,0-0.3,0-0.5
		c0-0.2,0-0.3,0-0.5c0-0.1,0-0.2,0-0.3c0-0.2,0-0.5,0-0.7c0,0,0,0,0,0c0-0.1,0-0.1,0-0.2c0,0,0-0.1,0.1-0.1c0,0,0,0,0,0
		c0-0.1,0.1-0.1,0.1-0.2c0,0,0.1-0.1,0.1-0.1c0,0,0.1,0,0.1-0.1c0,0,0.1,0,0.1-0.1c0,0,0,0,0,0c0,0,0,0,0.1,0c0,0,0.1,0,0.1,0
		c0,0,0,0,0,0c0.1,0,0.2,0,0.2,0c0.1,0,0.1,0,0.2,0c0,0,0.1,0,0.1,0c0,0,0.1,0,0.1,0c0,0,0.1,0,0.1,0c0.1,0,0.2,0,0.2,0
		c0.1,0,0.1,0.1,0.1,0.1c0,0,0,0.1-0.1,0.1c0,0,0.1,0.1,0.1,0.1c0,0,0.1,0.1,0.1,0.1c0,0,0.1,0,0.1,0.1c0,0,0.1,0,0.1,0.1
		c0,0,0.1,0,0.1,0c0.1,0,0.1,0,0.2,0c0.2,0,0.4,0,0.6,0c0.1,0,0.1,0,0.2,0c0,0,0.1,0,0.1,0c0,0,0.1,0,0.1-0.1c0,0,0.1,0,0.1-0.1
		c0,0,0,0,0,0c0,0,0,0,0,0c0,0,0,0,0,0c0,0,0-0.1,0-0.1c0,0,0.1,0,0.1,0c0,0,0,0,0.1,0c0,0,0.1,0,0.1,0c0,0,0.1,0,0.1,0.1
		c0,0,0,0,0,0c0.1,0,0.2,0,0.3,0.1c0.1,0,0.2,0.1,0.3,0.1c0.1,0,0.2,0.1,0.3,0.2c0,0,0.1,0.1,0.1,0.1c0,0,0,0,0,0c0,0,0,0,0.1,0
		c0,0,0.1,0.1,0.1,0.1c0,0,0,0.1,0,0.1c0,0,0,0,0,0.1c0,0,0,0,0,0c0,0,0,0.1,0,0.1c0,0.1,0,0.1,0,0.2c0,0.1,0,0.2,0,0.3
		c0,0.2,0,0.4,0,0.6c0,0.2,0,0.4,0,0.7c0,0.2,0,0.4,0,0.6c0,0.2,0,0.4,0,0.6c0,0.2,0,0.4,0,0.6c0,0,0,0,0,0c0,0.2,0,0.4,0,0.6
		c0,0.2,0,0.4,0,0.6c0,0.1,0,0.2,0,0.3c0,0,0,0,0,0c0,0.1,0,0.1,0,0.2c0,0,0,0,0,0.1c0,0.2,0,0.4,0,0.6c0,0.1,0,0.2,0,0.3
		c0,0.1,0,0.2,0,0.3c0,0.1,0,0.2,0,0.3c0,0.1,0,0.2,0,0.3c0,0.2,0,0.4,0,0.6c0,0.1,0,0.2,0,0.2c0,0.1,0,0.2,0,0.2c0,0.2,0,0.3,0,0.5
		c0,0.2,0,0.4,0,0.6c0,0.2,0,0.4,0,0.7c0,0.2,0,0.3,0,0.5c0,0.1,0,0.2,0,0.2c0,0,0,0.1,0,0.1c0,0,0,0,0,0.1c0,0,0,0,0,0.1
		c0,0.1,0,0.2,0,0.3c0,0.2,0,0.4,0,0.7c0,0,0,0.1,0,0.1c0,0,0,0.1,0,0.1c0,0,0,0,0,0c0,0.1,0,0.2,0,0.3c0,0.2,0,0.4,0,0.7
		c0,0.1,0,0.2,0,0.2c0,0.1,0,0.1,0,0.2c0,0,0,0,0,0c0,0.1,0,0.1,0,0.2c0,0.1,0,0.1,0,0.2c0,0.2,0,0.4,0,0.5c0,0,0,0.1,0,0.1
		c0,0,0,0.1,0,0.1c0,0,0,0,0,0.1c0,0.1-0.1,0.1-0.1,0.1c0,0,0,0-0.1,0c0,0,0,0,0,0c0,0-0.1,0-0.1,0.1c0,0-0.1,0-0.1,0
		c-0.1,0-0.2,0.1-0.3,0.1c-0.1,0-0.2,0.1-0.3,0.1c-0.1,0-0.2,0-0.3,0.1c0,0,0,0,0,0c-0.1,0.1-0.1,0.1-0.2,0.1c-0.1,0-0.1,0-0.2,0
		c-0.1,0-0.2,0-0.4,0c-0.1,0-0.3,0-0.4,0c-0.1,0-0.1,0-0.2,0c0,0-0.1,0-0.1,0c0,0-0.1,0-0.1,0c-0.1,0-0.2,0-0.2-0.1c0,0-0.1,0-0.1,0
		c0,0,0,0-0.1,0c0,0-0.1,0-0.1,0c0,0,0,0,0,0c-0.1,0-0.2,0-0.3-0.1c-0.1,0-0.1,0-0.2,0c0,0-0.1,0-0.1,0C93,25.4,92.9,25.4,92.9,25.3
		C92.9,25.3,92.9,25.3,92.9,25.3z"/>
	<path class="st3" d="M96.2,23.6c-0.1,0-0.1-0.1-0.2-0.2c0,0,0-0.1,0-0.2c0-0.1,0-0.2,0-0.3c0-0.2,0-0.4,0-0.6c0,0,0,0,0,0
		c0,0,0,0,0,0c0,0,0,0,0,0c0,0,0,0,0,0c0-0.4,0-0.7,0-1.1c0,0,0,0,0,0c0,0,0,0,0,0c0,0,0,0,0,0c0,0,0,0,0-0.1c0,0,0-0.1,0-0.1
		c0-0.1,0-0.1,0-0.2c0-0.2,0-0.4,0-0.6c0-0.2,0-0.4,0-0.6c0-0.2,0-0.4,0-0.7c0-0.4,0-0.9,0-1.3c0-0.2,0-0.4,0-0.6c0-0.1,0-0.2,0-0.3
		c0-0.1,0-0.1,0-0.2c0-0.1,0-0.1,0-0.2c0,0,0.1-0.1,0.2,0c0,0,0,0,0,0c0,0,0.1,0,0.1,0.1c0,0,0,0,0,0c0,0,0,0,0,0c0,0,0,0,0,0
		c0,0,0,0,0,0c0,0,0,0,0,0c0,0,0-0.1,0-0.1c0,0,0-0.1,0.1-0.1c0,0,0-0.1,0.1-0.1c0,0,0,0,0.1,0c0,0,0,0,0,0c0,0,0,0,0.1,0
		c0,0,0.1,0,0.1,0c0,0,0.1,0,0.1,0.1c0,0,0,0.1,0,0.1c0,0,0,0.1,0,0.1c0,0.1,0,0.1,0,0.2c0,0.1,0,0.2,0,0.3c0,0.1,0,0.1,0,0.2
		c0,0.1,0,0.2,0,0.3c0,0.1,0,0.2,0,0.3c0,0.1,0,0.2,0,0.3c0,0.2,0,0.4,0,0.6c0,0.2,0,0.4,0,0.6c0,0.2,0,0.4,0,0.6
		c0,0.4,0,0.9,0.1,1.3c0,0.2,0,0.4,0,0.6c0,0.1,0,0.2,0,0.3c0,0.1,0,0.2,0,0.3c0,0,0,0,0,0c0,0,0,0,0,0c0,0,0,0,0,0l0,0c0,0,0,0,0,0
		c0,0,0,0,0,0c0,0,0,0,0,0c0,0,0,0,0,0c0,0,0,0,0,0c0,0.1,0,0.2,0,0.3c0,0.1,0,0.2-0.1,0.3c0,0.1-0.1,0.1-0.1,0.2
		c0,0.1-0.1,0.1-0.2,0.1C96.3,23.7,96.3,23.7,96.2,23.6C96.2,23.6,96.2,23.6,96.2,23.6L96.2,23.6z M96.4,22.1c0,0.1,0,0.2,0,0.4
		c0-0.2,0-0.4,0-0.5c0-0.1,0-0.1,0-0.2c0,0,0,0,0,0c0,0,0,0,0,0c0,0,0,0,0,0C96.4,21.9,96.4,22,96.4,22.1z"/>
	<path class="st4" d="M92.6,25.3c-0.1,0-0.2-0.1-0.3-0.2c-0.1-0.1-0.1-0.1,0-0.2c0,0,0,0-0.1,0c0,0,0,0-0.1,0c0,0-0.1-0.1-0.1-0.1
		c0-0.1,0-0.1,0-0.2c0,0,0-0.1,0-0.1c0-0.1,0-0.2,0-0.3c0-0.2,0-0.4,0-0.6c0-0.2,0-0.4,0-0.6c0-0.2,0-0.4,0-0.6c0-0.1,0-0.3,0-0.4
		c0-0.1,0-0.2,0-0.3c0-0.2,0-0.4,0-0.6c0-0.1,0-0.2,0-0.4c0-0.3,0-0.6,0-0.9c0-0.3,0-0.6,0-0.9c0-0.2,0-0.3,0-0.5c0-0.4,0-0.9,0-1.3
		c0-0.2,0-0.3,0-0.5c0-0.1,0-0.2,0-0.3c0,0,0-0.1,0-0.1l0,0c0,0,0-0.1,0-0.1c0,0,0-0.1,0.1-0.1c0,0,0,0,0,0c0-0.1,0-0.1,0.1-0.1
		c0,0,0.1,0,0.1,0c0.1,0,0.1,0.1,0.1,0.1c0,0,0,0,0,0.1c0,0,0,0,0,0c0,0,0,0,0,0c0,0,0,0.1,0,0.1c0,0.1,0,0.1,0,0.2
		c0,0.1,0,0.1,0,0.2c0,0.1,0,0.1,0,0.2c0,0.2,0,0.4,0,0.6c0,0.1,0,0.2,0,0.4c0,0,0,0,0,0c0-0.2,0-0.4,0-0.6c0,0,0-0.1,0-0.1
		c0-0.2,0-0.3,0-0.5l0,0c0,0,0-0.1,0-0.1c0,0,0-0.1,0-0.1c0,0,0-0.1,0-0.1c0,0,0.1-0.1,0.1-0.1c0,0,0,0,0,0c0,0,0.1,0,0.1,0.1
		c0,0,0,0.1,0,0.1c0,0,0,0.1,0,0.1c0,0.1,0,0.1,0,0.2c0,0.1,0,0.2,0,0.4c0,0.2,0,0.4,0,0.6l0,0.1c0,0.1,0,0.3,0,0.4
		c0,0.3,0,0.6,0,0.9c0,0.2,0,0.4,0,0.6l0,0.1c0,0.2,0,0.4,0,0.6c0,0.2,0,0.4,0,0.6l0,0.1c0,0.2,0,0.5,0,0.7c0,0.2,0,0.5,0,0.7l0,0.2
		c0,0.2,0,0.4,0,0.7c0,0.2,0,0.4,0,0.6c0,0.3,0,0.6,0,1c0,0.1,0,0.2,0,0.3l0,0c0,0.1,0,0.1,0,0.2c0,0,0,0.1,0,0.1c0,0,0,0,0,0.1
		c0,0-0.1,0.1-0.1,0.1C92.9,25.4,92.8,25.4,92.6,25.3C92.7,25.4,92.7,25.3,92.6,25.3L92.6,25.3z M92.5,24.9
		C92.5,24.9,92.5,24.9,92.5,24.9C92.5,24.9,92.5,24.9,92.5,24.9C92.5,24.9,92.5,24.9,92.5,24.9C92.5,24.9,92.5,24.9,92.5,24.9z"/>
	<path class="st5" d="M92.9,21.7c0,0,0-0.1,0-0.1c0,0,0,0,0,0c0-0.1,0-0.2,0-0.3c0-0.1,0-0.2,0-0.3c0-0.2,0-0.4,0-0.7
		c0-0.2,0-0.4,0-0.6c0-0.2,0-0.4,0-0.6c0-0.2,0-0.4,0-0.6c0-0.2,0-0.4,0-0.6c0-0.1,0-0.2,0-0.3c0,0-0.1,0-0.1-0.1c0,0,0-0.1-0.1-0.1
		c0,0,0,0-0.1,0c-0.1,0-0.1-0.1-0.1-0.1c0-0.1,0-0.2,0-0.3c0,0,0-0.1,0-0.1c0-0.1,0-0.2,0-0.2c0,0,0-0.1,0-0.1c0,0,0-0.1,0.1-0.1
		c0,0,0.1,0,0.1,0c0,0,0,0,0,0c0,0,0.1,0,0.1,0c0,0,0.1,0,0.1,0c0,0,0.1,0,0.1,0.1c0,0,0,0,0,0c0,0,0.1,0,0.1,0c0,0,0,0,0,0
		c0.1,0,0.2,0.1,0.2,0.2c0,0,0,0,0,0.1c0,0,0,0,0,0c0,0,0,0,0,0l0,0c0,0,0,0.1,0,0.1c0,0.1,0,0.1,0,0.2c0,0.1,0,0.2,0,0.3
		c0,0.2,0,0.4,0,0.7c0,0.4,0,0.9,0,1.3c0,0.4,0,0.9,0,1.3c0,0.4,0,0.9,0,1.3c0,0.2,0,0.4,0,0.6c0,0.2,0,0.4,0,0.7c0,0.2,0,0.4,0,0.6
		c0,0.2,0,0.4,0,0.6c0,0.2,0,0.3,0,0.5c0,0.1,0,0.2,0,0.2c0,0.1,0,0.2,0,0.2c0,0,0,0.1,0,0.1c0,0,0,0.1,0,0.1c0,0,0,0.1,0,0.1
		c0,0-0.1,0-0.1,0c0,0-0.1,0-0.1,0c0,0-0.1,0-0.1,0c-0.1,0-0.1,0-0.2-0.1c0,0-0.1,0-0.1,0c-0.1,0-0.2-0.1-0.3-0.1c0,0-0.1,0-0.1,0
		c0,0-0.1-0.1-0.1-0.1c0,0,0-0.1,0-0.1c0,0,0,0,0.1,0c0,0,0,0,0,0c0,0,0,0,0,0c0.1,0,0.1,0,0.2,0c0,0,0,0,0,0c0,0,0.1,0,0.1,0.1
		c0.1,0,0.2,0.1,0.3,0.1c0,0,0,0,0,0c0,0,0,0,0,0c0,0,0-0.1,0-0.1c0,0,0-0.1,0-0.1c0-0.1,0-0.2,0-0.3c0-0.1,0-0.2,0-0.3
		c0-0.1,0-0.2,0-0.3c0-0.4,0-0.8,0-1.3c0-0.3,0-0.6,0-0.9c0,0,0,0,0,0C93,21.7,93,21.7,92.9,21.7C92.9,21.7,92.9,21.7,92.9,21.7z"/>
	<path class="st6" d="M92.5,28.9c-0.1-0.1-0.2-0.2-0.2-0.4c0-0.1,0-0.3,0.1-0.4c0.1-0.1,0.1-0.2,0.2-0.2c0.1-0.1,0.2-0.1,0.3-0.1
		c0,0,0.1,0,0.1,0c0,0,0,0,0,0c0,0,0.1,0,0.1,0c0.1,0,0.1,0,0.2,0c0.1,0,0.1,0,0.2,0c0,0,0,0,0,0c0.1,0,0.1,0,0.2,0c0,0,0,0,0.1,0
		c0,0,0.1,0,0.1,0c0,0,0.1,0,0.1,0c0-0.1,0-0.2,0-0.3c0-0.1,0-0.2,0-0.3c0-0.1,0-0.1,0-0.2c0,0,0,0,0-0.1c0,0,0-0.1,0-0.1
		c0,0,0,0,0,0c0,0,0-0.1,0-0.1c0-0.1,0-0.2,0-0.3c0-0.2,0-0.5,0-0.7c0-0.1,0-0.1,0-0.2c0,0,0,0,0-0.1c0-0.1,0-0.2,0-0.3
		c0-0.1,0-0.1,0-0.2c0,0,0-0.1,0-0.1c0-0.2,0-0.4,0-0.7c0-0.5,0-0.9,0.1-1.4c0-0.1,0-0.1,0-0.2c0,0,0,0,0,0c0-0.2,0-0.4,0-0.7
		c0-0.1,0-0.2,0-0.3c0-0.2,0-0.3,0-0.5c0,0,0-0.1,0-0.1c0,0,0,0,0-0.1c0-0.1,0-0.1,0-0.2c0-0.1,0-0.1,0-0.2c0,0,0,0,0,0
		c0,0,0,0,0-0.1c0-0.1,0-0.1,0-0.2c0,0,0-0.1,0-0.1c0-0.1,0-0.1,0-0.2c0-0.1,0-0.2,0-0.3c0-0.2,0-0.4,0-0.7c0-0.1,0-0.1,0-0.2
		c0-0.1,0-0.1,0-0.2c0-0.1,0-0.2,0-0.3c0,0,0-0.1,0-0.1c0,0,0-0.1,0-0.1c0,0,0-0.1,0-0.1c0,0,0-0.1,0-0.1c0,0,0,0,0,0
		c0-0.1,0-0.2,0-0.3c0-0.2,0-0.4,0-0.7c0,0,0,0,0-0.1c0-0.1,0-0.1,0-0.2c0,0,0.1-0.1,0.2,0c0,0,0.1,0,0.1,0.1c0,0,0,0,0,0
		c0,0,0.1,0,0.1,0c0,0,0,0,0.1,0c0.1,0,0.1,0,0.2,0c0.1,0,0.1,0,0.2,0c0.1,0,0.1,0,0.2,0c0,0,0.1,0,0.1,0c0,0,0.1,0,0.1,0.1
		c0,0,0,0.1,0,0.1c0,0.1,0,0.1,0,0.2c0,0.1,0,0.1,0,0.2c0,0.1,0,0.2,0,0.3c0,0.1,0,0.3,0,0.4c0,0,0,0.1,0,0.1c0,0,0,0.1,0,0.1
		c0,0,0,0.1,0,0.1c0,0.1,0,0.1,0,0.2c0,0,0,0.1,0,0.1c0,0,0,0,0,0.1c0,0.1,0,0.1,0,0.2c0,0.1,0,0.1,0,0.2c0,0.1,0,0.2,0,0.3
		c0,0,0,0,0,0c0,0.1,0,0.1,0,0.2c0,0.2,0,0.4,0,0.7c0,0.1,0,0.2,0,0.3c0,0.1,0,0.1,0,0.2c0,0.1,0,0.3,0,0.4c0,0.2,0,0.4,0,0.6
		c0,0,0,0.1,0,0.1c0,0.1,0,0.2,0,0.3c0,0,0,0,0,0c0,0,0,0.1,0,0.1c0,0.1,0,0.2,0,0.2c0,0,0,0.1,0,0.1c0,0,0,0,0,0.1c0,0,0,0,0,0
		c0,0.2,0,0.4,0,0.7c0,0,0,0,0,0c0,0,0,0.1,0,0.1c0,0,0,0,0,0c0,0.1,0,0.3,0,0.4c0,0,0,0,0,0.1c0,0.1,0,0.2,0,0.3c0,0.1,0,0.2,0,0.3
		c0,0.1,0,0.3,0,0.4c0,0.2,0,0.4,0,0.5c0,0.1,0,0.2,0,0.2c0,0,0,0.1,0,0.1c0,0.1,0,0.1,0,0.2c0,0,0,0,0,0c0,0,0,0,0,0
		c0,0.1,0,0.1,0,0.2c0,0.1,0,0.2,0,0.3c0,0,0,0,0,0c0,0.1,0,0.2,0,0.3c0,0.2,0,0.4,0,0.7c0,0,0,0,0,0c0,0,0.1,0.1,0.1,0.1
		c0,0,0,0.1,0,0.1c0,0,0,0.1,0,0.1c0,0,0,0.1,0,0.1c0,0,0,0.1,0,0.1c0,0,0.1,0,0.1,0c0,0,0.1,0,0.1,0c0.1,0,0.1,0,0.2,0
		c0.1,0,0.2,0,0.3,0.1c0.1,0,0.2,0.1,0.3,0.1c0.1,0.1,0.2,0.1,0.3,0.2c0,0,0.1,0.1,0.1,0.1c0,0,0.1,0.1,0.1,0.2c0,0.1,0,0.1,0,0.2
		c0,0.1,0,0.1,0,0.2c0,0.1,0,0.1,0,0.2c0,0.1-0.1,0.1-0.1,0.1c0,0,0,0,0,0c0,0-0.1,0.1-0.2,0.1c-0.1,0-0.1,0-0.2,0.1
		c-0.1,0-0.2,0.1-0.4,0.1c-0.1,0-0.2,0-0.4,0c-0.1,0-0.1,0-0.2,0c0,0-0.1,0-0.1,0c-0.1,0-0.1,0-0.2,0c0,0,0,0,0,0c0,0,0,0,0,0
		c0,0,0,0-0.1,0c0,0,0,0-0.1,0c0,0-0.1,0-0.1,0c-0.1,0-0.1,0-0.2,0c-0.1,0-0.2,0-0.4,0c-0.1,0-0.3,0-0.4-0.1c-0.1,0-0.1,0-0.2,0
		c-0.1,0-0.1,0-0.2-0.1c0,0,0,0,0,0c0,0,0,0,0,0c0,0,0,0-0.1,0c0,0,0,0,0,0c0,0,0,0,0,0c0,0-0.1,0-0.1,0c0,0-0.1,0-0.1,0
		c-0.1,0-0.1,0-0.2-0.1c0,0,0,0,0,0C92.7,29,92.6,28.9,92.5,28.9z"/>
	<path class="st7" d="M94,16.9C94,16.9,94,16.9,94,16.9c0-0.1,0-0.1,0-0.1c0,0,0,0,0,0c0,0,0,0,0,0c0,0,0,0,0,0c0-0.1-0.1-0.1,0-0.2
		c0,0,0-0.1,0.1-0.1c0,0,0.1,0,0.1,0c0,0,0,0,0.1,0c0,0,0,0,0,0c0.1,0,0.2,0,0.2,0c0,0,0.1,0,0.1,0c0.1,0,0.2,0,0.2,0
		c0,0,0.1,0,0.1,0c0.1,0,0.1,0,0.2,0c0,0,0.1,0.1,0.1,0.1c0,0,0,0,0,0c0,0.1,0,0.1,0,0.1c0,0,0,0.1,0,0.1c0,0,0,0.1,0,0.1
		c0,0,0,0.1-0.1,0.1c0,0-0.1,0-0.1,0.1c0,0-0.1,0-0.1,0c-0.1,0-0.2,0-0.3,0c0,0,0,0.1,0,0.1c0,0.2,0,0.5,0,0.7c0,0.5,0,1,0,1.4
		c0,0.5,0,0.9,0,1.4c0,0.5,0,0.9,0,1.4c0,0.5,0,1,0,1.4c0,0.5,0,0.9,0,1.4c0,0.5,0,0.9,0,1.4c0,0.5,0,0.9,0,1.4c0,0.1,0,0.2,0,0.3
		c0,0,0,0,0,0c0,0,0,0,0,0c0,0,0,0,0,0c0,0,0,0,0,0c0,0,0,0,0,0c0,0,0,0,0,0.1c0,0.1-0.1,0.1-0.2,0.1c0,0,0,0,0,0
		c-0.1,0-0.1-0.1-0.1-0.1l0,0c0,0,0,0,0,0c0,0,0,0,0,0c0,0,0,0,0,0c0,0-0.1,0-0.1-0.1c0,0,0,0,0,0c0,0,0,0.1,0,0.1c0,0,0,0-0.1,0
		c0,0,0,0,0,0c0,0,0,0-0.1,0c0,0-0.1,0-0.1,0c-0.1,0-0.2,0-0.2,0c-0.2,0-0.3,0-0.5,0.1c-0.2,0-0.3,0.1-0.5,0.1c0,0,0,0,0,0
		c-0.1,0-0.1,0-0.2,0c0,0,0,0,0,0c0,0-0.1,0-0.1,0c0,0,0-0.1,0-0.1c0,0,0-0.1,0-0.1c0,0,0,0,0-0.1c0,0,0-0.1,0-0.1c0,0,0,0,0.1-0.1
		c0,0,0.1,0,0.1-0.1c0.1,0,0.1-0.1,0.2-0.1c0.1,0,0.2-0.1,0.3-0.1c0.1,0,0.1,0,0.2-0.1c0.1,0,0.1-0.1,0.2-0.1c0.1,0,0.2-0.1,0.4-0.1
		c0,0,0.1,0,0.1,0c0.1,0,0.1,0.1,0.1,0.1c0,0,0,0.1-0.1,0.1c0,0,0,0-0.1,0c0,0,0,0,0,0.1c0,0,0,0.1,0,0.1c0,0,0,0,0,0
		c0,0,0.1,0,0.1,0c0,0,0,0,0,0c0,0,0,0,0,0c0,0,0-0.1,0-0.1c0-0.1,0-0.1,0-0.2c0,0,0,0,0,0c0,0,0-0.1,0-0.1c0-0.1,0-0.2,0-0.3
		c0,0,0,0,0-0.1c0-0.1,0-0.2,0-0.3c0-0.2,0-0.5,0-0.7c0,0,0,0,0,0c0,0-0.1-0.1-0.1-0.1c0,0,0-0.1,0-0.1c0,0,0-0.1,0-0.1
		c0-0.1,0-0.1,0-0.2c0-0.1,0-0.2,0-0.3c0-0.1,0-0.2,0-0.3c0-0.1,0-0.1,0-0.2c0,0,0,0,0-0.1c0,0,0-0.1,0-0.1c0,0,0,0,0,0
		c0-0.3,0-0.5,0-0.8c0,0,0,0,0,0c0-0.1,0-0.1,0-0.2c0,0,0-0.1,0-0.1c0-0.1,0-0.2,0-0.2c0-0.1,0-0.1,0-0.2c0-0.1,0-0.2,0-0.2
		c0,0,0,0,0-0.1c0-0.1,0-0.3,0-0.4c0-0.2,0-0.3,0-0.5c0-0.1,0-0.2,0-0.2c0,0,0,0,0-0.1c0-0.1,0-0.1,0-0.2c0,0,0,0,0,0
		c0-0.2,0-0.3,0-0.5c0-0.1,0-0.2,0-0.3c0-0.1,0-0.1,0-0.2c0,0,0,0,0-0.1c0,0,0-0.1,0-0.1c0,0,0,0,0.1-0.1c0-0.1,0-0.1,0-0.2
		c0-0.1,0-0.2,0-0.3c0,0,0,0,0,0c0,0,0-0.1,0-0.1c0,0,0,0,0-0.1c0-0.1,0-0.1,0-0.2c0-0.1,0-0.2,0-0.3c0-0.2,0-0.5,0-0.7
		c0-0.2,0-0.4,0-0.6c0-0.1,0-0.2,0-0.3C94,17.1,94,17,94,16.9C94,16.9,94,16.9,94,16.9L94,16.9z M92.5,28.9c0.1,0.1,0.2,0.1,0.3,0.2
		c0,0,0,0,0,0c0.1,0,0.2,0.1,0.4,0.1c0.1,0,0.2,0,0.3,0.1c0.1,0,0.2,0,0.3,0c0.1,0,0.2,0,0.4,0c0.1,0,0.2,0,0.3,0c0.2,0,0.4,0,0.6,0
		c0.1,0,0.2,0,0.4,0c0.1,0,0.2,0,0.3,0c0.1,0,0.2,0,0.3-0.1c0.1,0,0.1,0,0.2-0.1c0,0,0.1-0.1,0.1-0.1c0.1,0,0.1-0.1,0-0.2
		c0,0-0.1,0-0.1-0.1c0,0-0.1,0-0.1,0c0,0,0,0,0,0c0,0,0,0,0,0c0,0,0,0,0,0c0,0,0,0,0,0c0,0,0,0,0,0c0,0-0.1,0.1-0.1,0.1
		c-0.1,0-0.2,0.1-0.3,0.1c0,0,0,0-0.1,0c0,0,0,0-0.1,0c0,0-0.1,0-0.1,0c-0.1,0-0.2,0-0.3,0c-0.2,0-0.4,0-0.5,0c0,0,0,0,0,0
		c0,0,0,0,0,0c0,0-0.1,0-0.1,0c-0.1,0-0.1,0-0.2,0c0,0-0.1,0-0.1,0c0,0-0.1,0-0.1,0c-0.1,0-0.1,0-0.2,0c-0.1,0-0.2,0-0.3,0
		c0,0-0.1,0-0.1,0c-0.1,0-0.1,0-0.2,0c-0.1,0-0.1,0-0.2,0c0,0,0,0,0,0c0,0,0,0-0.1,0c0,0,0,0,0,0c-0.1,0-0.1,0-0.2,0
		c0,0-0.1,0-0.1,0c-0.1,0-0.1-0.1-0.2-0.1c0,0-0.1-0.1-0.1-0.1c0,0-0.1-0.1-0.1-0.1c0,0,0,0,0,0c-0.1-0.1-0.1-0.1-0.2,0
		c-0.1,0-0.1,0.1,0,0.2c0,0,0.1,0.1,0.1,0.1C92.4,28.8,92.5,28.9,92.5,28.9z"/>
	<path class="st8" d="M94.7,19.7C94.7,19.7,94.7,19.7,94.7,19.7c0-0.1,0-0.2,0-0.2c0-0.2,0-0.4,0-0.7c0-0.2,0-0.4,0-0.6
		c0-0.1,0-0.1,0-0.2c0,0,0-0.1,0-0.1c0,0,0-0.1,0-0.1c0-0.1,0.1-0.1,0.2-0.1c0.1,0,0.1,0.1,0.1,0.2c0,0,0,0,0,0c0,0.1,0,0.2,0,0.3
		c0,0.1,0,0.2,0,0.3c0,0.2,0,0.4,0,0.6c0,0.1,0,0.1,0,0.2c0,0.1,0,0.1,0,0.2c0,0,0,0.1,0,0.1c0,0,0,0.1,0,0.1c0,0.1-0.1,0.1-0.2,0.1
		c0,0,0,0,0,0C94.7,19.8,94.7,19.7,94.7,19.7L94.7,19.7z M96.1,28.7c0,0,0-0.1,0-0.1c0,0,0,0,0,0c0,0,0,0,0,0c0,0,0,0,0.1-0.1
		c0,0,0.1,0,0.1,0c0.1,0,0.1,0.1,0.1,0.2c0,0,0,0.1-0.1,0.1c0,0-0.1,0-0.2,0C96.2,28.8,96.2,28.8,96.1,28.7
		C96.1,28.7,96.1,28.7,96.1,28.7L96.1,28.7z M94.6,29c0-0.1,0-0.1,0-0.1c0,0,0.1,0,0.1,0c0,0,0,0,0.1,0c0,0,0,0,0,0
		c0.1,0,0.1,0,0.2,0c0.1,0,0.2,0,0.3,0c0.1,0,0.1,0,0.2,0c0,0,0.1,0,0.1,0c0.1,0,0.1,0,0.2-0.1c0.1,0,0.2,0,0.2,0.1c0,0,0,0.1,0,0.1
		c0,0,0,0.1-0.1,0.1c0,0-0.1,0-0.1,0.1c0,0-0.1,0-0.2,0c-0.1,0-0.2,0-0.3,0c-0.1,0-0.2,0-0.3,0c-0.1,0-0.1,0-0.2,0c0,0-0.1,0-0.1,0
		C94.6,29.1,94.6,29.1,94.6,29L94.6,29z M94.6,26.7c0-0.1,0-0.2,0-0.3c0-0.1,0-0.2,0-0.3c0-0.2,0-0.4,0-0.6c0,0,0-0.1,0-0.1
		c0,0,0-0.1,0.1-0.1c0.1,0,0.1,0,0.2,0.1c0,0,0,0.1,0,0.1c0,0,0,0,0,0c0,0,0,0.1,0,0.1c0,0.1,0,0.1,0,0.2c0,0.1,0,0.2,0,0.3
		c0,0.2,0,0.4,0,0.6c0,0,0,0.1,0,0.1c0,0.1-0.1,0.1-0.2,0.1c0,0,0,0,0,0C94.6,26.9,94.6,26.8,94.6,26.7L94.6,26.7z M94.6,24.5
		c0-0.1,0-0.2,0-0.3c0-0.1,0-0.2,0-0.3c0-0.2,0-0.4,0-0.6c0-0.2,0-0.4,0-0.6c0-0.1,0-0.2,0-0.3c0,0,0-0.1,0-0.1c0,0,0,0,0-0.1
		c0,0,0-0.1,0.1-0.1c0,0,0.1,0,0.2,0c0.1,0,0.1,0.1,0.1,0.1c0,0,0,0,0,0c0,0,0,0,0,0c0,0,0,0,0,0c0,0.2,0,0.4,0,0.6
		c0,0.2,0,0.4,0,0.6c0,0.2,0,0.4,0,0.5c0,0.1,0,0.2,0,0.3c0,0.1,0,0.2,0,0.3c0,0.1-0.1,0.1-0.2,0.1c0,0,0,0,0,0
		C94.7,24.6,94.6,24.6,94.6,24.5z"/>
	<path class="st9" d="M92.7,16C92.7,16,92.7,16,92.7,16c-0.1,0-0.1,0-0.1-0.1c0,0,0,0-0.1-0.1c0,0,0,0-0.1,0c0,0,0,0,0,0
		c-0.1,0-0.1,0-0.2,0c0,0-0.1-0.1-0.1-0.1c0,0,0,0,0,0c0,0-0.1,0-0.1,0c0,0,0,0,0,0c-0.1,0-0.1-0.1-0.1-0.1c0,0-0.1-0.1-0.1-0.1
		c0,0,0-0.1,0-0.1c0-0.2,0-0.4,0-0.6c0-0.2,0-0.4,0-0.6c0-0.4,0.1-0.8,0.1-1.3c0-0.1,0-0.2,0-0.3c0-0.1,0-0.2,0-0.3
		c0-0.2,0-0.4,0-0.6c0-0.1,0-0.1,0-0.2c0,0,0,0,0-0.1c0,0,0,0,0-0.1c0,0,0-0.1,0-0.1c0-0.1,0-0.1,0-0.2c0-0.1,0-0.2,0-0.3
		c0-0.2,0-0.4,0-0.6c0,0,0,0,0-0.1c0,0,0,0,0-0.1c0,0,0-0.1,0-0.1c0,0,0-0.1,0-0.1c0,0,0,0,0,0c0,0,0-0.1,0-0.1c0-0.1,0-0.2,0.1-0.2
		c0,0,0.1-0.1,0.1-0.1c0,0,0,0,0,0c0.1,0,0.2-0.1,0.2,0c0,0,0,0,0,0c0.1,0,0.1,0,0.2,0c0.1,0,0.1,0,0.2,0c0.1,0,0.2,0,0.3,0
		c0.1,0,0.2,0,0.3,0c0,0,0.1,0,0.1,0c0.1,0,0.1,0,0.1,0.1c0,0,0,0,0,0c0,0,0,0,0,0c0,0,0,0,0,0c0,0,0,0,0,0c0,0,0,0,0.1,0
		c0,0,0.1,0.1,0.1,0.1c0.1,0,0.1,0.1,0.2,0.1c0,0,0.1,0,0.1,0.1c0.1,0,0.3,0.1,0.4,0.1c0.1,0,0.3,0,0.4,0.1c0.1,0,0.1,0,0.2,0
		c0,0,0.1,0,0.1,0c0.1,0,0.1,0,0.2,0c0,0,0.1,0,0.1,0c0,0,0,0,0,0c0,0,0,0,0,0c0,0,0,0,0,0c0,0,0,0,0,0c0,0,0,0,0,0c0,0,0-0.1,0-0.1
		c0-0.1,0.1-0.1,0.2-0.1c0.1,0,0.1,0,0.2,0c0.1,0,0.1,0,0.2,0c0.1,0,0.1,0,0.2,0c0.2,0.1,0.5,0.1,0.7,0.2c0,0,0.1,0,0.1,0.1
		c0,0,0.1,0,0.1,0.1c0.1,0,0.1,0.1,0.1,0.2c0,0,0,0,0,0c0,0,0,0,0,0c0,0,0,0.1,0,0.1c0,0,0,0.1,0,0.1c0,0.1,0,0.2,0,0.3
		c0,0.2,0,0.4,0,0.7c0,0.2,0,0.4,0,0.6c0,0.1,0,0.2,0,0.3c0,0.1,0,0.2,0,0.3c0,0.1,0,0.2,0,0.3c0.1,0,0.1,0.1,0.1,0.1
		c0,0.2,0,0.3-0.1,0.5c0,0.2,0,0.3,0,0.5c0,0.2,0,0.3-0.1,0.5c0,0,0,0,0,0c0,0.1,0,0.2,0,0.3c0,0.1,0,0.2,0,0.3c0,0.2,0,0.4,0,0.6
		c0,0,0,0,0,0.1c0,0,0,0,0,0c0,0.1,0,0.1,0,0.1c0,0-0.1,0.1-0.1,0.1c0,0-0.1,0-0.2,0.1c-0.1,0-0.2,0.1-0.3,0.1c-0.1,0-0.2,0-0.3,0.1
		c-0.1,0-0.2,0-0.4,0.1c-0.1,0-0.2,0-0.2,0c0,0-0.1,0-0.1,0c0,0-0.1,0-0.1,0c0,0,0,0,0,0c-0.2,0-0.5,0-0.7,0c-0.3,0-0.5-0.1-0.8-0.1
		c0,0-0.1,0-0.1,0c0,0,0,0,0,0c-0.1,0-0.2,0-0.2,0c-0.1,0-0.3-0.1-0.4-0.1c-0.1,0-0.2-0.1-0.3-0.1C92.9,16.1,92.8,16,92.7,16
		C92.7,16,92.7,16,92.7,16C92.7,16,92.7,16,92.7,16z"/>
	<path class="st10" d="M92.4,15.9c0,0,0-0.1,0-0.1c0,0,0,0,0,0c0,0,0,0,0,0c0,0,0,0-0.1,0c0,0,0,0-0.1,0c0,0-0.1-0.1-0.1-0.1
		c0-0.2,0-0.4,0-0.6c0-0.2,0-0.4,0-0.6c0-0.2,0-0.4,0-0.6c0-0.2,0-0.4,0-0.7c0-0.4,0-0.9,0-1.3l0,0c0-0.2,0-0.5,0-0.7
		c0-0.2,0-0.4,0.1-0.6c0-0.1,0-0.2,0-0.3c0-0.1,0-0.1,0-0.2c0,0,0-0.1,0-0.1c0,0,0-0.1,0.1-0.1c0,0,0.1,0,0.1-0.1c0,0,0.1,0,0.1,0
		c0,0,0,0,0,0c0,0,0,0,0,0c0,0,0.1,0,0.1,0c0,0,0.1,0,0.1,0c0.1,0,0.2,0.1,0.3,0.1c0,0,0.1,0,0.2,0c0,0,0,0,0,0c0,0,0,0,0,0
		c0,0,0.1,0,0.1,0c0,0,0,0,0,0c0,0,0,0,0,0c0,0,0.1,0,0.1,0c0,0,0.1,0,0.1,0.1c0,0,0,0.1,0.1,0.1c0,0.1,0,0.2,0.1,0.3
		c0,0.2,0,0.4,0,0.7c0,0.2,0,0.4,0,0.6c0,0.2,0,0.4,0,0.7c0,0.2,0,0.4,0,0.7c0,0.2,0,0.4,0,0.6c0,0.4,0,0.9-0.1,1.3
		c0,0.2,0,0.4-0.1,0.6c0,0.1,0,0.2-0.1,0.3c0,0,0,0.1,0,0.1c0,0,0,0,0,0.1c0,0.1-0.1,0.1-0.1,0.1c-0.1,0-0.1,0-0.2-0.1
		c0,0,0-0.1,0-0.1c0,0,0,0,0-0.1c0,0-0.1,0-0.1,0c0,0,0,0,0,0c0,0-0.1,0-0.2,0c0,0,0,0,0,0c-0.1,0-0.1-0.1-0.1-0.1c0,0,0-0.1,0-0.1
		l0,0c0,0.1-0.1,0.1-0.2,0.1C92.5,16,92.5,15.9,92.4,15.9C92.5,15.9,92.4,15.9,92.4,15.9L92.4,15.9z M94.2,14.9
		c0,0.1,0.1,0.1,0.1,0.1c0,0,0,0,0.1,0c0,0,0.1,0,0.1,0c0,0,0-0.1,0-0.1c0,0,0,0,0,0c0,0,0,0,0,0c0,0,0,0,0,0c0,0,0,0,0,0
		c0,0,0,0,0-0.1c0,0,0-0.1,0-0.1c0-0.1,0-0.2,0-0.3c0-0.1,0-0.2,0-0.3c0-0.1,0-0.1-0.1-0.2c-0.1,0-0.2,0-0.2,0c0,0-0.1,0.1-0.1,0.1
		c0,0,0,0.1,0,0.1c0,0,0,0.1-0.1,0.1c0,0.1,0,0.1,0,0.2c0,0.1,0,0.1,0,0.2c0,0.1,0,0.1,0,0.2c0,0,0,0.1,0,0.1
		C94.2,14.8,94.2,14.8,94.2,14.9C94.2,14.8,94.2,14.9,94.2,14.9L94.2,14.9z M94.2,13.5c0,0,0.1,0.1,0.1,0.1c0,0,0,0,0,0
		c0.1,0,0.1,0,0.2-0.1c0.1-0.1,0.1-0.2,0.1-0.3c0-0.1,0-0.2,0.1-0.3c0-0.2,0-0.4,0-0.7c0-0.2,0-0.4,0-0.7c0-0.2,0-0.4,0-0.6
		c0-0.1,0-0.2,0-0.3c0,0,0-0.1,0-0.1c0-0.1,0-0.2,0-0.2c0,0-0.1-0.1-0.1-0.1c0,0-0.1,0-0.1,0c0,0,0,0,0,0c0,0-0.1-0.1-0.1-0.1
		c-0.1,0-0.1,0-0.2,0c0,0,0,0.1,0,0.1c0,0.1,0,0.1,0,0.2c0,0.1,0,0.2,0,0.3c0,0.2,0,0.4,0,0.7c0,0.4,0,0.7,0,1.1c0,0,0,0,0,0
		c0,0.1,0,0.1,0,0.2c0,0.1,0,0.2,0,0.3c0,0.1,0,0.1,0,0.2c0,0,0,0.1,0,0.1C94.2,13.4,94.2,13.4,94.2,13.5L94.2,13.5z M92.7,10.1
		L92.7,10.1C92.7,10.1,92.7,10.1,92.7,10.1C92.7,10.1,92.7,10.1,92.7,10.1C92.7,10.1,92.7,10.1,92.7,10.1L92.7,10.1z M92.6,12.2
		c0,0.1,0,0.2,0,0.2C92.6,12.3,92.6,12.2,92.6,12.2C92.6,12.2,92.6,12.2,92.6,12.2L92.6,12.2z M93,15.6C93,15.6,93,15.6,93,15.6
		c0,0,0-0.1,0-0.1c0,0,0,0,0,0c0,0,0,0,0,0C93,15.5,93,15.6,93,15.6L93,15.6z M93.4,13.3c0,0.1,0,0.3,0,0.4c0-0.1,0-0.2,0-0.3
		c0-0.2,0-0.4,0-0.6c0,0,0-0.1,0-0.1c0,0,0,0,0,0c0,0,0,0,0,0C93.4,12.9,93.4,13.1,93.4,13.3L93.4,13.3z M93.1,10.5
		C93.1,10.5,93.1,10.5,93.1,10.5C93.1,10.5,93.1,10.5,93.1,10.5C93.1,10.5,93.2,10.5,93.1,10.5C93.2,10.5,93.2,10.4,93.1,10.5
		C93.1,10.5,93.1,10.5,93.1,10.5C93.1,10.5,93.1,10.5,93.1,10.5C93.1,10.5,93.1,10.5,93.1,10.5z"/>
	<path class="st11" d="M95.8,16.3C95.8,16.3,95.8,16.3,95.8,16.3c0-0.1,0-0.1,0-0.2c0-0.1,0-0.1,0-0.2c0-0.1,0-0.2,0-0.3
		c0-0.2,0-0.4,0-0.7c0-0.2,0-0.4,0-0.6c0-0.1,0-0.3,0-0.4c0,0,0,0,0,0c0-0.1,0-0.2,0-0.2c0-0.2,0-0.4,0-0.7c0-0.2,0-0.4,0-0.6
		c0-0.2,0-0.4,0.1-0.7c0-0.1,0-0.2,0.1-0.3c0-0.1,0-0.1,0-0.2c0,0,0-0.1,0-0.1c0,0,0-0.1,0.1-0.1c0,0,0.1,0,0.1-0.1c0,0,0,0,0.1,0
		c0,0,0,0,0.1,0c0,0,0.1,0,0.1,0.1c0,0,0.1,0,0.1,0.1c0,0,0,0.1,0.1,0.1c0,0,0,0.1,0,0.1c0,0,0,0.1,0,0.1c0,0.1,0,0.2,0.1,0.3
		c0,0.2,0,0.5,0,0.7c0,0.2,0,0.4,0,0.6c0,0.4,0,0.9,0,1.3c0,0.2,0,0.4,0,0.6c0,0.2,0,0.4,0,0.6c0,0.1,0,0.2,0,0.3c0,0.1,0,0.1,0,0.2
		c0,0.1,0,0.1-0.1,0.2c-0.1,0-0.2,0-0.2,0c0,0,0,0-0.1-0.1c0,0,0,0,0,0c0,0-0.1,0.1-0.1,0.1c0,0-0.1,0-0.1,0c0,0,0,0,0,0
		c0,0-0.1,0.1-0.1,0.1c0,0,0,0,0,0C95.8,16.4,95.8,16.4,95.8,16.3L95.8,16.3z M96.2,11.6C96.3,11.6,96.3,11.6,96.2,11.6
		C96.3,11.7,96.3,11.7,96.2,11.6C96.3,11.6,96.3,11.6,96.2,11.6c0-0.1,0-0.1,0-0.1C96.3,11.5,96.2,11.6,96.2,11.6z"/>
	<path class="st12" d="M95.7,15.4C95.6,15.4,95.6,15.3,95.7,15.4c-0.1-0.1-0.1-0.1-0.1-0.1c0,0,0,0,0-0.1c0,0,0-0.1,0-0.1
		c0,0,0-0.1,0-0.1c0,0,0-0.1,0-0.1c0,0,0,0,0,0c0,0,0,0,0,0c0,0,0,0,0.1,0c0,0,0,0,0.1,0c0,0,0.1,0,0.1,0c0,0,0.1,0,0.1,0
		c0,0,0.1,0,0.1,0c0,0,0.1,0,0.1,0c0.1,0,0.1,0.1,0.2,0.1c0,0,0.1,0.1,0.1,0.1c0,0.1,0,0.1,0,0.2c0,0.1-0.1,0.2-0.3,0.2
		c0,0-0.1,0-0.1,0c0,0-0.1,0-0.1,0C95.9,15.5,95.8,15.4,95.7,15.4C95.7,15.4,95.7,15.4,95.7,15.4C95.7,15.4,95.7,15.4,95.7,15.4
		L95.7,15.4z M96.3,11.8c0,0-0.1-0.1-0.1-0.1c0,0,0,0,0,0c0,0,0,0,0-0.1c0,0,0.1-0.1,0.1-0.1c0.1,0,0.1,0,0.2,0c0,0,0,0,0,0
		c0,0,0,0,0,0c0,0,0,0,0,0c0,0,0,0,0,0c0,0,0,0,0,0c0,0,0,0,0,0c0,0,0,0.1,0,0.1c0,0,0,0,0,0c0,0.1,0,0.2-0.1,0.2
		C96.4,11.8,96.3,11.8,96.3,11.8C96.3,11.8,96.3,11.8,96.3,11.8L96.3,11.8z M95.3,11.2C95.2,11.2,95.2,11.2,95.3,11.2
		c0,0-0.1-0.1-0.1-0.1c0-0.1,0-0.1,0.1-0.1c0,0,0.1,0,0.1,0c0,0,0,0,0.1,0c0,0,0,0,0,0c0,0,0,0,0,0c0,0,0,0,0,0c0,0,0,0,0,0
		c0,0,0,0,0,0c0,0,0,0,0,0c0,0,0,0,0,0c0,0,0,0,0,0c0,0,0,0.1,0,0.1c0,0,0,0,0,0c0,0,0,0,0,0C95.4,11.2,95.4,11.3,95.3,11.2
		C95.3,11.2,95.3,11.2,95.3,11.2C95.3,11.2,95.3,11.2,95.3,11.2L95.3,11.2z M95.1,12.6c0,0-0.1-0.1-0.1-0.1c0,0,0,0,0-0.1
		c0,0,0-0.1,0-0.1c0,0,0.1-0.1,0.1-0.1c0,0,0,0,0,0c0,0,0,0,0,0c0,0,0.1,0,0.1,0c0,0,0,0,0.1,0c0,0,0,0,0,0c0,0,0,0,0.1,0
		c0.1,0,0.1,0,0.1,0.1c0,0,0,0,0,0.1c0,0,0,0,0,0c0,0,0,0,0,0.1c0,0,0,0,0,0.1c0,0,0,0,0,0c0,0,0,0-0.1,0c0,0,0,0-0.1,0
		c0,0-0.1,0-0.1,0c0,0,0,0,0,0c0,0,0,0-0.1,0C95.2,12.7,95.2,12.7,95.1,12.6C95.2,12.7,95.2,12.7,95.1,12.6
		C95.1,12.7,95.1,12.6,95.1,12.6L95.1,12.6z M96.1,14c-0.1,0-0.1-0.1-0.1-0.1c0,0,0-0.1,0-0.1c0,0,0,0,0,0c0,0,0,0,0,0
		c0,0,0.1-0.1,0.1-0.1c0,0,0.1,0,0.1,0c0,0,0.1,0,0.1,0c0,0,0,0,0,0.1c0,0,0,0,0,0.1c0,0.1-0.1,0.2-0.2,0.2C96.3,14,96.2,14,96.1,14
		C96.1,14,96.1,14,96.1,14z"/>
	<path class="st13" d="M93.9,9.5c-0.1,0-0.1-0.1-0.1-0.1c0,0,0-0.1,0-0.1c0,0,0-0.1,0-0.1c0-0.2,0-0.4,0-0.6c0-0.1,0-0.2,0-0.3
		c0,0,0-0.1,0-0.1c0-0.1,0-0.1,0.1-0.2c0-0.1,0-0.1,0-0.2c0,0,0,0,0,0c0-0.1,0-0.1,0-0.2c0,0,0-0.1,0-0.1c0,0,0-0.1,0-0.1
		c0-0.1,0-0.2,0-0.3c0-0.1,0-0.3,0-0.4c0,0,0-0.1,0-0.1c0,0,0-0.1,0-0.1c0,0,0-0.1,0-0.1c0,0,0-0.1,0.1-0.1c0,0,0,0,0,0c0,0,0,0,0,0
		C94,6.1,94,6,94,6c0,0,0,0,0,0c0,0,0-0.1,0-0.1c0,0,0.1,0,0.1,0c0,0,0.1,0,0.1,0c0,0,0,0,0.1,0c0.1,0,0.1,0,0.2,0c0,0,0,0,0,0
		c0,0,0.1,0,0.1,0c0,0,0,0,0.1,0.1c0,0,0,0,0,0c0,0,0,0,0.1,0c0,0,0.1,0.1,0.1,0.1c0.1,0.1,0.1,0.2,0.2,0.3c0,0,0,0,0,0.1
		c0,0,0,0,0,0c0,0.1,0.1,0.1,0.1,0.2c0,0.1,0.1,0.2,0.1,0.3c0,0.1,0.1,0.3,0.1,0.4c0,0,0,0,0.1,0.1c0,0,0,0.1,0,0.1
		c0,0.1,0,0.1,0,0.2c0,0.1,0,0.2,0.1,0.3c0,0.2,0.1,0.4,0.1,0.6c0,0,0,0.1,0,0.1c0,0,0,0,0,0.1c0,0.1,0,0.1,0,0.2c0,0.1,0,0.1,0,0.2
		c0,0.1,0,0.2,0,0.3c0,0.1,0,0.2,0,0.2c0,0-0.1,0.1-0.1,0.1c0,0,0,0,0,0c0,0,0,0-0.1,0c-0.1,0-0.2,0-0.3,0.1c-0.1,0-0.2,0-0.3,0
		c-0.1,0-0.2,0-0.3,0c-0.1,0-0.2-0.1-0.4-0.1c-0.1,0-0.1,0-0.2-0.1C94,9.6,94,9.6,93.9,9.5C93.9,9.5,93.9,9.5,93.9,9.5z"/>
	<path class="st14" d="M94.1,9.7c0,0-0.1-0.1-0.1-0.1c0,0,0,0,0,0c0,0,0,0-0.1,0c0,0,0,0,0,0c-0.1,0-0.1,0-0.2,0
		c-0.1-0.1-0.1-0.2-0.1-0.2c0-0.1,0-0.1,0-0.1c0-0.1,0-0.2,0-0.4c0-0.2,0-0.3,0.1-0.5c0,0,0-0.1,0-0.1c0-0.1,0-0.2,0-0.3
		c0,0,0,0,0,0c0,0,0,0,0,0c0-0.2,0-0.4,0-0.6c0,0,0,0,0,0c0,0,0,0,0-0.1c0,0,0-0.1,0-0.1c0-0.1,0-0.2,0-0.3c0,0,0,0,0,0c0,0,0,0,0,0
		c0,0,0,0,0,0c0-0.1,0-0.2,0.1-0.3c0,0,0,0,0-0.1c0-0.1,0-0.1,0-0.2c0-0.1,0-0.1,0.1-0.2c0-0.1,0.1-0.1,0.2,0c0.1,0,0.1,0.1,0.1,0.1
		c0,0,0,0,0,0c0,0,0,0,0,0c0,0,0,0,0.1,0c0.1,0,0.1,0,0.1,0.1c0,0,0,0,0,0c0,0,0,0,0,0c0,0,0,0,0,0c0,0,0,0.1,0,0.1c0,0,0,0,0,0
		c0,0,0,0.1,0,0.1c0,0.1,0,0.1,0,0.2c0,0.1,0,0.1,0,0.2c0,0.2,0,0.4-0.1,0.6c0,0.2,0,0.4,0,0.6c0,0.1,0,0.1,0,0.2c0,0,0,0,0,0
		c0,0,0,0,0,0c0,0,0,0,0,0c0,0.2,0,0.4,0,0.5c0.1,0,0.1,0,0.2,0c0.1,0,0.2,0,0.2,0c0.1,0,0.1,0,0.1,0c0.1,0,0.2,0,0.2,0.1
		c0,0.1,0,0.2-0.1,0.2c-0.1,0-0.2,0-0.3,0c-0.1,0-0.2,0-0.3,0c0,0-0.1,0-0.1,0c0,0,0,0.1,0,0.1l0,0c0.1,0,0.2,0,0.3,0
		c0.1,0,0.1,0,0.2,0c0.1,0,0.2,0,0.3,0c0,0,0.1,0,0.1,0c0,0,0.1,0,0.1,0c0.1,0,0.2,0,0.2,0.1c0,0,0,0.1,0,0.1c0,0,0,0.1-0.1,0.1
		c-0.1,0.1-0.2,0.1-0.3,0.1c-0.1,0-0.2,0-0.3,0c-0.2,0-0.4,0-0.6,0c0,0.1,0,0.1,0,0.2c0,0,0,0.1-0.1,0.1c0,0-0.1,0-0.1,0
		c0,0-0.1,0-0.1,0c0,0,0,0,0,0C94.2,9.7,94.2,9.7,94.1,9.7z"/>
	<path class="st15" d="M94.9,8c-0.1-0.1-0.1-0.2-0.1-0.2c0-0.1,0-0.2,0-0.3c0-0.1,0-0.2,0-0.3c0-0.1,0-0.2,0-0.3c0,0,0-0.1,0-0.1
		c0,0,0,0,0-0.1c0,0,0,0,0-0.1c0,0,0-0.1,0-0.1c0,0,0.1,0,0.1,0c0.1,0,0.1,0,0.1,0.1c0,0,0.1,0,0.1,0.1c0,0.1,0.1,0.2,0.1,0.3
		c0,0.1,0,0.2,0.1,0.3c0,0.1,0,0.2,0,0.3c0,0.1,0,0.1,0,0.2c0,0.1,0,0.1,0,0.2c0,0.1,0,0.1-0.1,0.2C95.1,8.1,95,8.1,94.9,8
		C94.9,8,94.9,8,94.9,8L94.9,8z M94.4,6c0,0,0-0.1-0.1-0.1c0-0.1,0-0.2,0-0.2c0-0.1,0-0.2,0-0.3c0-0.2,0-0.4,0-0.6
		c0-0.2,0-0.4,0-0.6c0-0.1,0-0.2,0-0.3c0-0.1,0-0.2,0-0.3c0-0.1,0-0.1,0-0.2c0-0.1,0-0.2,0-0.2c0,0,0,0,0,0c0,0,0,0,0,0
		c0,0,0-0.1,0-0.1c0,0,0-0.1,0-0.1c0-0.1,0-0.2,0-0.3c0-0.1,0-0.3,0-0.4c0,0,0-0.1,0-0.1c0,0,0,0,0,0c0,0,0,0,0,0c0,0,0,0,0,0
		c0,0,0,0,0,0c0-0.1,0.1-0.1,0.2-0.1c0,0,0,0,0,0c0.1,0,0.1,0.1,0.1,0.2c0,0,0,0,0,0c0,0,0,0,0,0c0,0,0,0,0,0c0,0,0,0.1,0,0.1
		c0,0.1,0,0.1,0,0.2c0,0,0,0.1,0,0.1c0,0,0,0,0,0.1c0,0,0,0.1,0,0.1c0,0,0,0.1,0,0.1c0,0.1,0,0.1,0,0.2c0,0.1,0,0.2,0,0.3
		c0,0.1,0,0.2,0,0.3c0,0.1,0,0.2,0,0.3c0,0.1,0,0.2,0,0.3c0,0.1,0,0.2,0,0.3c0,0.2,0,0.4,0,0.6c0,0.1,0,0.3,0,0.4c0,0.1,0,0.2,0,0.4
		C94.6,6,94.6,6,94.5,6C94.4,6,94.4,6,94.4,6C94.4,6,94.4,6,94.4,6L94.4,6z M95,8.4C95,8.4,95,8.4,95,8.4c0-0.1,0.1-0.2,0.2-0.1
		c0.1,0,0.1,0.1,0.1,0.1c0,0,0,0.1,0,0.1c0,0,0,0.1,0,0.1c0,0-0.1,0.1-0.1,0.1c0,0,0,0,0,0C95,8.6,95,8.5,95,8.4z"/>
	<path class="st16" d="M94.4,4.5c0-0.1,0-0.3,0-0.4c0-0.1,0-0.1,0-0.2c0,0,0,0,0,0c0-0.1,0-0.1,0-0.2c0-0.1,0-0.3,0-0.4c0,0,0,0,0,0
		c0-0.1,0-0.2,0-0.3c0-0.1,0-0.2,0-0.4c0,0,0,0,0,0c0-0.1,0-0.2,0-0.3c0,0,0-0.1,0-0.1c0,0,0,0,0-0.1c0,0,0,0,0-0.1c0,0,0,0,0,0
		c0,0,0,0,0,0c0,0,0,0,0,0c0,0,0,0,0,0c0,0,0,0,0,0c0,0,0,0,0.1,0c0,0,0,0,0,0c0,0,0,0,0,0c0,0,0,0,0,0c0,0.1,0,0.2,0,0.3
		c0,0.1,0,0.1,0,0.2c0,0,0,0.1,0,0.1c0,0,0,0,0,0c0,0,0,0,0,0c0,0,0,0,0,0c0,0,0,0,0,0c0,0,0,0.1,0,0.1c0,0.1,0,0.2,0,0.2
		c0,0.1,0,0.2,0,0.3c0,0.1,0,0.3,0,0.4c0,0.1,0,0.2,0,0.2c0,0,0,0,0,0c0,0,0,0.1,0,0.1c0,0,0,0,0,0c0,0,0,0,0,0c0,0,0,0,0,0.1
		c0,0,0,0,0,0c0,0,0,0,0,0c0,0.1,0,0.1,0,0.2c0,0,0,0.1,0,0.1C94.5,4.5,94.5,4.5,94.4,4.5C94.4,4.5,94.4,4.5,94.4,4.5
		C94.4,4.5,94.4,4.5,94.4,4.5L94.4,4.5z M94.4,5.4C94.4,5.4,94.4,5.3,94.4,5.4c0-0.1,0-0.1,0-0.1c0,0,0-0.1,0-0.1c0,0,0-0.1,0-0.1
		c0,0,0-0.1,0-0.1c0,0,0,0,0,0c0,0,0,0,0,0c0,0,0,0,0,0c0,0,0,0,0,0c0,0,0,0,0.1,0c0,0,0.1,0,0.1,0c0,0,0,0,0,0.1c0,0,0,0,0,0.1
		c0,0,0,0.1,0,0.1c0,0,0,0.1,0,0.1c0,0,0,0,0,0c0,0,0,0,0,0c0,0,0,0,0,0c0,0,0,0,0,0C94.6,5.4,94.5,5.4,94.4,5.4
		C94.5,5.4,94.5,5.4,94.4,5.4C94.5,5.4,94.4,5.4,94.4,5.4z"/>
</g>
</svg>
